<svg xmlns="http://www.w3.org/2000/svg" width="19.948" height="19.455" viewBox="0 0 19.948 19.455">
  <path id="bxl-github_1_" data-name="bxl-github(1)" d="M12.026,2A9.975,9.975,0,0,0,8.873,21.439c.5.09.679-.217.679-.481,0-.237-.008-.865-.011-1.7-2.775.6-3.361-1.338-3.361-1.338a2.635,2.635,0,0,0-1.107-1.459c-.905-.619.069-.6.069-.6a2.089,2.089,0,0,1,1.527,1.028,2.124,2.124,0,0,0,2.9.829,2.138,2.138,0,0,1,.635-1.334c-2.214-.251-4.542-1.107-4.542-4.93A3.865,3.865,0,0,1,6.688,8.778a3.588,3.588,0,0,1,.1-2.64s.837-.269,2.742,1.021a9.439,9.439,0,0,1,4.992,0c1.906-1.291,2.742-1.021,2.742-1.021a3.571,3.571,0,0,1,.1,2.64,3.84,3.84,0,0,1,1.024,2.675c0,3.833-2.33,4.675-4.552,4.922a2.39,2.39,0,0,1,.675,1.846c0,1.334-.012,2.41-.012,2.737,0,.267.178.577.687.479A9.975,9.975,0,0,0,12.026,2Z" transform="translate(-2.052 -2)" fill="#e5e5e5" fill-rule="evenodd"/>
</svg>
