<svg xmlns="http://www.w3.org/2000/svg" width="18" height="18" viewBox="0 0 18 18">
  <path id="bxl-linkedin-square" d="M20,3H4A1,1,0,0,0,3,4V20a1,1,0,0,0,1,1H20a1,1,0,0,0,1-1V4A1,1,0,0,0,20,3ZM8.339,18.337H5.667V9.747H8.339ZM7,8.574A1.548,1.548,0,1,1,8.551,7.026,1.548,1.548,0,0,1,7,8.574Zm11.335,9.763H15.669V14.16c0-1-.018-2.277-1.388-2.277-1.39,0-1.6,1.086-1.6,2.207v4.248H10.013V9.748h2.56v1.174h.037a2.8,2.8,0,0,1,2.524-1.387c2.7,0,3.2,1.778,3.2,4.092v4.71Z" transform="translate(-3 -3)" fill="#e5e5e5"/>
</svg>
