<svg xmlns="http://www.w3.org/2000/svg" width="23.333" height="20.333" viewBox="0 0 23.333 20.333"><path d="M22.936,9.086c.015.223.015.445.015.666,0,6.783-4.812,14.6-13.607,14.6A12.855,12.855,0,0,1,2,22.048a9.322,9.322,0,0,0,1.155.064,9.176,9.176,0,0,0,5.938-2.192A4.847,4.847,0,0,1,4.62,16.361a5.686,5.686,0,0,0,.9.079,4.763,4.763,0,0,0,1.26-.175A5.053,5.053,0,0,1,2.949,11.23v-.064a4.581,4.581,0,0,0,2.161.651A5.23,5.23,0,0,1,2.977,7.545a5.376,5.376,0,0,1,.651-2.588,13.322,13.322,0,0,0,9.862,5.369,6.239,6.239,0,0,1-.119-1.176,4.964,4.964,0,0,1,4.783-5.131,4.625,4.625,0,0,1,3.494,1.62A9.067,9.067,0,0,0,24.683,4.4a5.073,5.073,0,0,1-2.1,2.828,9.078,9.078,0,0,0,2.753-.795A10.705,10.705,0,0,1,22.936,9.086Z" transform="translate(-2 -4.019)" fill="#25c1e9"/></svg>