<svg xmlns="http://www.w3.org/2000/svg" width="20" height="20" viewBox="0 0 20 20">
  <path id="bx-customize" d="M4.111,11.889h6.667a1.111,1.111,0,0,0,1.111-1.111V4.111A1.111,1.111,0,0,0,10.778,3H4.111A1.111,1.111,0,0,0,3,4.111v6.667A1.111,1.111,0,0,0,4.111,11.889ZM5.222,5.222H9.667V9.667H5.222ZM21.889,3H15.222a1.111,1.111,0,0,0-1.111,1.111v6.667a1.111,1.111,0,0,0,1.111,1.111h6.667A1.111,1.111,0,0,0,23,10.778V4.111A1.111,1.111,0,0,0,21.889,3ZM20.778,9.667H16.333V5.222h4.444ZM10.778,23a1.111,1.111,0,0,0,1.111-1.111V15.222a1.111,1.111,0,0,0-1.111-1.111H4.111A1.111,1.111,0,0,0,3,15.222v6.667A1.111,1.111,0,0,0,4.111,23ZM5.222,16.333H9.667v4.444H5.222Zm14.444-1.111H17.444v2.222H15.222v2.222h2.222v2.222h2.222V19.667h2.222V17.444H19.667Z" transform="translate(-3 -3)" fill="#6820ff"/>
</svg>
