<svg xmlns="http://www.w3.org/2000/svg" width="111.554" height="92.068" viewBox="0 0 111.554 92.068"><g transform="matrix(-0.017, 1, -1, -0.017, 356.965, -76.647)" opacity="0.5"><circle cx="7" cy="7" r="7" transform="translate(83 244)" fill="#001236"/><circle cx="7" cy="7" r="7" transform="translate(82 268)" fill="#001236"/><circle cx="7" cy="7" r="7" transform="translate(82 292)" fill="#001236"/><circle cx="7" cy="7" r="7" transform="translate(83 316)" fill="#001236"/><circle cx="7" cy="7" r="7" transform="translate(83 340)" fill="#001236"/><circle cx="7" cy="7" r="7" transform="translate(102 244)" fill="#001236"/><circle cx="7" cy="7" r="7" transform="translate(101 268)" fill="#001236"/><circle cx="7" cy="7" r="7" transform="translate(101 292)" fill="#001236"/><circle cx="7" cy="7" r="7" transform="translate(101 316)" fill="#001236"/><circle cx="7" cy="7" r="7" transform="translate(102 340)" fill="#001236"/><circle cx="7" cy="7" r="7" transform="translate(121 244)" fill="#001236"/><circle cx="7" cy="7" r="7" transform="translate(120 268)" fill="#001236"/><circle cx="7" cy="7" r="7" transform="translate(120 292)" fill="#001236"/><circle cx="7" cy="7" r="7" transform="translate(120 316)" fill="#001236"/><circle cx="7" cy="7" r="7" transform="translate(121 340)" fill="#001236"/><circle cx="7" cy="7" r="7" transform="translate(140 244)" fill="#001236"/><circle cx="7" cy="7" r="7" transform="translate(139 268)" fill="#001236"/><circle cx="7" cy="7" r="7" transform="translate(139 292)" fill="#001236"/><circle cx="7" cy="7" r="7" transform="translate(139 316)" fill="#001236"/><circle cx="7" cy="7" r="7" transform="translate(140 340)" fill="#001236"/><circle cx="7" cy="7" r="7" transform="translate(159 244)" fill="#001236"/><circle cx="7" cy="7" r="7" transform="translate(158 268)" fill="#001236"/><circle cx="7" cy="7" r="7" transform="translate(158 292)" fill="#001236"/><circle cx="7" cy="7" r="7" transform="translate(158 316)" fill="#001236"/><circle cx="7" cy="7" r="7" transform="translate(159 340)" fill="#001236"/></g></svg>