<svg xmlns="http://www.w3.org/2000/svg" xmlns:xlink="http://www.w3.org/1999/xlink" width="1772.757" height="1792.944" viewBox="0 0 1772.757 1792.944">
  <defs>
    <linearGradient id="linear-gradient" x1="0.547" y1="0.613" x2="0.065" y2="0.404" gradientUnits="objectBoundingBox">
      <stop offset="0" stop-color="#160841"/>
      <stop offset="1" stop-color="#04020d" stop-opacity="0.588"/>
    </linearGradient>
  </defs>
  <path id="blob_9_" data-name="blob(9)" d="M860.708,161.251C933.529,241.3,957.8,356.1,1058.207,466.69c101.508,111.643,280.251,218.02,264.8,295.96-15.447,78.993-226.187,127.442-356.382,203.275-131.3,76.886-183.156,180.1-273.631,243.3-89.371,62.141-217.36,83.206-311.145,37.917C288.069,1200.8,228.488,1088.1,144.633,995.416,61.882,901.678-42.936,829-53.97,743.692c-9.93-85.312,75.028-181.157,99.3-332.824C70.709,259.2,36.505,51.714,110.43-27.279S366.407-57.823,517.566-10.427C669.828,35.916,788.99,81.2,860.708,161.251Z" transform="matrix(0.391, -0.921, 0.921, 0.391, 85.08, 1245.733)" opacity="0.82" fill="url(#linear-gradient)"/>
</svg>
