<svg xmlns="http://www.w3.org/2000/svg" width="111.554" height="92.068" viewBox="0 0 111.554 92.068">
  <g id="Grupo_6" data-name="Grupo 6" transform="matrix(-0.017, 1, -1, -0.017, 356.965, -76.647)" opacity="0.5">
    <circle id="Elipse_1" data-name="Elipse 1" cx="7" cy="7" r="7" transform="translate(83 244)" fill="#001236"/>
    <circle id="Elipse_6" data-name="Elipse 6" cx="7" cy="7" r="7" transform="translate(82 268)" fill="#001236"/>
    <circle id="Elipse_11" data-name="Elipse 11" cx="7" cy="7" r="7" transform="translate(82 292)" fill="#001236"/>
    <circle id="Elipse_16" data-name="Elipse 16" cx="7" cy="7" r="7" transform="translate(83 316)" fill="#001236"/>
    <circle id="Elipse_21" data-name="Elipse 21" cx="7" cy="7" r="7" transform="translate(83 340)" fill="#001236"/>
    <circle id="Elipse_2" data-name="Elipse 2" cx="7" cy="7" r="7" transform="translate(102 244)" fill="#001236"/>
    <circle id="Elipse_7" data-name="Elipse 7" cx="7" cy="7" r="7" transform="translate(101 268)" fill="#001236"/>
    <circle id="Elipse_12" data-name="Elipse 12" cx="7" cy="7" r="7" transform="translate(101 292)" fill="#001236"/>
    <circle id="Elipse_17" data-name="Elipse 17" cx="7" cy="7" r="7" transform="translate(101 316)" fill="#001236"/>
    <circle id="Elipse_22" data-name="Elipse 22" cx="7" cy="7" r="7" transform="translate(102 340)" fill="#001236"/>
    <circle id="Elipse_3" data-name="Elipse 3" cx="7" cy="7" r="7" transform="translate(121 244)" fill="#001236"/>
    <circle id="Elipse_8" data-name="Elipse 8" cx="7" cy="7" r="7" transform="translate(120 268)" fill="#001236"/>
    <circle id="Elipse_13" data-name="Elipse 13" cx="7" cy="7" r="7" transform="translate(120 292)" fill="#001236"/>
    <circle id="Elipse_18" data-name="Elipse 18" cx="7" cy="7" r="7" transform="translate(120 316)" fill="#001236"/>
    <circle id="Elipse_23" data-name="Elipse 23" cx="7" cy="7" r="7" transform="translate(121 340)" fill="#001236"/>
    <circle id="Elipse_4" data-name="Elipse 4" cx="7" cy="7" r="7" transform="translate(140 244)" fill="#001236"/>
    <circle id="Elipse_9" data-name="Elipse 9" cx="7" cy="7" r="7" transform="translate(139 268)" fill="#001236"/>
    <circle id="Elipse_14" data-name="Elipse 14" cx="7" cy="7" r="7" transform="translate(139 292)" fill="#001236"/>
    <circle id="Elipse_19" data-name="Elipse 19" cx="7" cy="7" r="7" transform="translate(139 316)" fill="#001236"/>
    <circle id="Elipse_24" data-name="Elipse 24" cx="7" cy="7" r="7" transform="translate(140 340)" fill="#001236"/>
    <circle id="Elipse_5" data-name="Elipse 5" cx="7" cy="7" r="7" transform="translate(159 244)" fill="#001236"/>
    <circle id="Elipse_10" data-name="Elipse 10" cx="7" cy="7" r="7" transform="translate(158 268)" fill="#001236"/>
    <circle id="Elipse_15" data-name="Elipse 15" cx="7" cy="7" r="7" transform="translate(158 292)" fill="#001236"/>
    <circle id="Elipse_20" data-name="Elipse 20" cx="7" cy="7" r="7" transform="translate(158 316)" fill="#001236"/>
    <circle id="Elipse_25" data-name="Elipse 25" cx="7" cy="7" r="7" transform="translate(159 340)" fill="#001236"/>
  </g>
</svg>
